<?xml version="1.0" encoding="UTF-8" standalone="no"?>
<svg
   height="128"
   version="1.1"
   width="128"
   id="svg9"
   sodipodi:docname="nginx_forward_proxy_icon-002.svg"
   inkscape:version="1.4 (86a8ad7, 2024-10-11)"
   inkscape:export-filename="nginx_forward_proxy_icon-002.png"
   inkscape:export-xdpi="96"
   inkscape:export-ydpi="96"
   xmlns:inkscape="http://www.inkscape.org/namespaces/inkscape"
   xmlns:sodipodi="http://sodipodi.sourceforge.net/DTD/sodipodi-0.dtd"
   xmlns:xlink="http://www.w3.org/1999/xlink"
   xmlns="http://www.w3.org/2000/svg"
   xmlns:svg="http://www.w3.org/2000/svg">
  <sodipodi:namedview
     id="namedview9"
     pagecolor="#505050"
     bordercolor="#ffffff"
     borderopacity="1"
     inkscape:showpageshadow="0"
     inkscape:pageopacity="0"
     inkscape:pagecheckerboard="1"
     inkscape:deskcolor="#505050"
     inkscape:zoom="6.171875"
     inkscape:cx="64"
     inkscape:cy="64"
     inkscape:window-width="1920"
     inkscape:window-height="992"
     inkscape:window-x="-8"
     inkscape:window-y="-8"
     inkscape:window-maximized="1"
     inkscape:current-layer="svg9" />
  <defs
     id="defs1">
    <linearGradient
       id="linearGradient96"
       inkscape:collect="always">
      <stop
         style="stop-color:#000000;stop-opacity:0;"
         offset="0"
         id="stop97" />
      <stop
         style="stop-color:#000000;stop-opacity:0.63137255;"
         offset="0.31147543"
         id="stop98" />
      <stop
         style="stop-color:#000000;stop-opacity:1;"
         offset="0.87090164"
         id="stop96" />
    </linearGradient>
    <inkscape:path-effect
       effect="fillet_chamfer"
       id="path-effect12"
       is_visible="true"
       lpeversion="1"
       nodesatellites_param="F,0,0,1,0,5,0,1 @ F,0,0,1,0,5,0,1 @ F,0,0,1,0,5,0,1 @ F,0,0,1,0,5,0,1 @ F,0,0,1,0,5,0,1 @ F,0,0,1,0,5,0,1"
       radius="5"
       unit="px"
       method="auto"
       mode="F"
       chamfer_steps="1"
       flexible="false"
       use_knot_distance="true"
       apply_no_radius="true"
       apply_with_radius="true"
       only_selected="false"
       hide_knots="false" />
    <inkscape:path-effect
       effect="fillet_chamfer"
       id="path-effect12-8"
       is_visible="true"
       lpeversion="1"
       nodesatellites_param="F,0,0,1,0,5,0,1 @ F,0,0,1,0,5,0,1 @ F,0,0,1,0,5,0,1 @ F,0,0,1,0,5,0,1 @ F,0,0,1,0,5,0,1 @ F,0,0,1,0,5,0,1"
       radius="5"
       unit="px"
       method="auto"
       mode="F"
       chamfer_steps="1"
       flexible="false"
       use_knot_distance="true"
       apply_no_radius="true"
       apply_with_radius="true"
       only_selected="false"
       hide_knots="false" />
    <inkscape:path-effect
       effect="fillet_chamfer"
       id="path-effect12-4"
       is_visible="true"
       lpeversion="1"
       nodesatellites_param="F,0,0,1,0,5,0,1 @ F,0,0,1,0,5,0,1 @ F,0,0,1,0,5,0,1 @ F,0,0,1,0,5,0,1 @ F,0,0,1,0,5,0,1 @ F,0,0,1,0,5,0,1"
       radius="5"
       unit="px"
       method="auto"
       mode="F"
       chamfer_steps="1"
       flexible="false"
       use_knot_distance="true"
       apply_no_radius="true"
       apply_with_radius="true"
       only_selected="false"
       hide_knots="false" />
    <filter
       style="color-interpolation-filters:sRGB"
       inkscape:label="Drop Shadow"
       id="filter90"
       x="-5.1383639e-06"
       y="-4.503446e-06"
       width="1.0203364"
       height="1.0178235">
      <feFlood
         result="flood"
         in="SourceGraphic"
         flood-opacity="0.498039"
         flood-color="rgb(0,0,0)"
         id="feFlood89" />
      <feGaussianBlur
         result="blur"
         in="SourceGraphic"
         stdDeviation="0.00084265447"
         id="feGaussianBlur89" />
      <feOffset
         result="offset"
         in="blur"
         dx="8.000000"
         dy="8.000000"
         id="feOffset89" />
      <feComposite
         result="comp1"
         operator="in"
         in="flood"
         in2="offset"
         id="feComposite89" />
      <feComposite
         result="comp2"
         operator="over"
         in="SourceGraphic"
         in2="comp1"
         id="feComposite90" />
    </filter>
    <filter
       style="color-interpolation-filters:sRGB"
       inkscape:label="Drop Shadow"
       id="filter92"
       x="-0.064173662"
       y="-0.066300643"
       width="1.1711298"
       height="1.1768017">
      <feFlood
         result="flood"
         in="SourceGraphic"
         flood-opacity="0.498039"
         flood-color="rgb(0,0,0)"
         id="feFlood90" />
      <feGaussianBlur
         result="blur"
         in="SourceGraphic"
         stdDeviation="5.000000"
         id="feGaussianBlur90" />
      <feOffset
         result="offset"
         in="blur"
         dx="8.000000"
         dy="8.000000"
         id="feOffset90" />
      <feComposite
         result="comp1"
         operator="in"
         in="flood"
         in2="offset"
         id="feComposite91" />
      <feComposite
         result="comp2"
         operator="over"
         in="SourceGraphic"
         in2="comp1"
         id="feComposite92" />
    </filter>
    <filter
       style="color-interpolation-filters:sRGB"
       inkscape:label="Drop Shadow"
       id="filter94"
       x="-0.075686199"
       y="-0.092657487"
       width="1.2016424"
       height="1.2468571">
      <feFlood
         result="flood"
         in="SourceGraphic"
         flood-opacity="0.498039"
         flood-color="rgb(0,0,0)"
         id="feFlood92" />
      <feGaussianBlur
         result="blur"
         in="SourceGraphic"
         stdDeviation="5.0186453"
         id="feGaussianBlur92" />
      <feOffset
         result="offset"
         in="blur"
         dx="8.000000"
         dy="8.000000"
         id="feOffset92" />
      <feComposite
         result="comp1"
         operator="in"
         in="flood"
         in2="offset"
         id="feComposite93" />
      <feComposite
         result="comp2"
         operator="over"
         in="SourceGraphic"
         in2="comp1"
         id="feComposite94" />
    </filter>
    <filter
       style="color-interpolation-filters:sRGB"
       inkscape:label="Drop Shadow"
       id="filter96"
       x="-0.045116459"
       y="-0.053099446"
       width="1.1203106"
       height="1.1415985">
      <feFlood
         result="flood"
         in="SourceGraphic"
         flood-opacity="0.498039"
         flood-color="rgb(0,0,0)"
         id="feFlood95" />
      <feGaussianBlur
         result="blur"
         in="SourceGraphic"
         stdDeviation="5.000000"
         id="feGaussianBlur95" />
      <feOffset
         result="offset"
         in="blur"
         dx="8.000000"
         dy="8.000000"
         id="feOffset95" />
      <feComposite
         result="comp1"
         operator="in"
         in="flood"
         in2="offset"
         id="feComposite95" />
      <feComposite
         result="comp2"
         operator="over"
         in="SourceGraphic"
         in2="comp1"
         id="feComposite96" />
    </filter>
    <linearGradient
       inkscape:collect="always"
       xlink:href="#linearGradient96"
       id="linearGradient97"
       x1="662.00311"
       y1="506"
       x2="959.98523"
       y2="506"
       gradientUnits="userSpaceOnUse"
       gradientTransform="translate(-218.8551,-206.84727)" />
  </defs>
  <g
     id="g98"
     transform="matrix(0.16731255,0,0,0.16731255,2.0000008,22.554366)">
    <path
       d="m 613.1449,408.14959 h -1 -1 -1 -1 -1 -1 -1 -1 l -0.99686,-0.99686 -0.003,-0.003 h -1 l -0.99686,-0.99686 -0.003,-0.003 h -1 l -0.99686,-0.99686 -0.003,-0.003 -0.99686,-0.99686 -0.003,-0.003 -0.99686,-0.99686 -0.003,-0.003 -0.99686,-0.99686 v -1 l -0.003,-0.003 -0.99686,-0.99686 v -1 l -0.003,-0.003 -0.99686,-0.99686 v -1 -1 l -0.003,-0.003 -0.99686,-0.99686 v -1 -1 -1 -1 -1 -1 -1 -1 -1 -1 -1 -1 -1 -1 -1 -1 -1 -1 -1 -1 -1 -1 -1 -1 -1 -1 -1 -1 -1 -1 -1 -1 -1 -1 -1 -1 -1 -1 -1 -1 -1 -1 -1 -1 -1 -1 -1 -1 -1 -1 -1 -1 -1 -1 -1 -1 -1 -1 -1 -1 -1 -1 -1 -1 l -0.003,-0.003 h -1 -1 -1 -1 -1 -1 -1 -1 -1 -1 -1 -1 -1 -1 -1 -1 -1 -1 -1 -1 -1 -1 -1 -1 -1 -1 -1 -1 -1 -1 -1 -1 -1 -1 -1 -1 -1 -1 -1 -1 -1 -1 -1 -1 -1 -1 -1 -1 -1 -1 -1 -1 -1 -1 -1 -1 -1 -1 -1 -1 -1 -1 -1 -1 -1 -1 -1 -1 -1 -1 -1 -1 -1 -1 -1 -1 -1 -1 -1 -1 -1 -1 -1 -1 -1 -1 -1 -1 -1 -1 -1 -1 -1 -1 -1 -1 -1 -1 -1 -1 -1 -1 -1 -1 -1 -1 -1 -1 -1 -1 -1 -1 -1 -1 -1 -1 -1 -1 -1 -1 -1 -1 -1 -1 -1 -1 -1 -1 -1 -1 -1 -1 -1 l -0.997,-0.997 -0.003,-0.003 h -1 l -0.997,-0.997 -0.003,-0.003 -0.99686,-0.99686 -0.003,-0.003 -0.99686,-0.99686 v -1 l -0.003,-0.003 -0.99686,-0.99686 v -1 -1 -1 -1 -1 -1 -1 -1 -1 -1 -1 -1 -1 -1 -1 -1 -1 -1 -1 -1 -1 -1 -1 -1 -1 -1 -1 -1 -1 -1 -1 -1 -1 -1 -1 -1 -1 -1 -1 -1 -1 -1 -1 -1 -1 -1 -1 -1 -1 -1 -1 -1 -1 -1 -1 -1 -1 -1 -1 -1 l 0.99686,-0.99686 0.003,-0.003 v -1 l 0.99686,-0.99686 0.003,-0.003 0.99686,-0.99686 0.003,-0.003 0.99686,-0.99686 h 1 1 l 0.003,-0.003 0.99686,-0.99686 h 1 1 1 1 1 1 1 1 1 1 1 1 1 1 1 1 1 1 1 1 1 1 1 1 1 1 1 1 1 1 1 1 1 1 1 1 1 1 1 1 1 1 1 1 1 1 1 1 1 1 1 1 1 1 1 1 1 1 1 1 1 1 1 1 1 1 1 1 1 1 1 1 1 1 1 1 1 1 1 1 1 1 1 1 1 1 1 1 1 1 1 1 1 1 1 1 1 1 1 1 1 1 1 1 1 1 1 1 1 1 1 1 1 1 1 1 1 1 1 1 1 1 1 1 1 1 1 1 1 1 1 1 l 0.003,-0.003 v -1 -1 -1 -1 -1 -1 -1 -1 -1 -1 -1 -1 -1 -1 -1 -1 -1 -1 -1 -1 -1 -1 -1 -1 -1 -1 -1 -1 -1 -1 -1 -1 -1 -1 -1 -1 -1 -1 -1 -1 -1 -1 -1 -1 -1 -1 -1 -1 -1 -1 -1 -1 -1 -1 -1 -1 -1 -1 -1 -1 -1 -1 -1 l 0.997,-0.997 0.003,-0.003 v -1 -1 -1 l 0.997,-0.997 0.003,-0.003 v -1 l 0.997,-0.997 0.003,-0.003 0.99686,-0.99686 0.003,-0.003 v -1 l 0.99714,-0.99714 0.003,-0.003 0.99686,-0.99686 h 1 l 0.003,-0.003 0.99686,-0.99686 0.003,-0.003 0.99686,-0.99686 h 1 l 0.003,-0.003 0.99686,-0.99686 h 1 1 1 1 1 1 1 1 l 0.99686,0.99686 0.003,0.003 h 1 l 0.99686,0.99686 0.003,0.003 0.99686,0.99686 0.003,0.003 h 1 l 0.99728,0.99728 0.003,0.003 0.99686,0.99686 0.003,0.003 0.99686,0.99686 0.003,0.003 0.99686,0.99686 0.003,0.003 0.99686,0.99686 0.003,0.003 0.99686,0.99686 0.003,0.003 0.99686,0.99686 0.003,0.003 0.99686,0.99686 0.003,0.003 0.99686,0.99686 0.003,0.003 0.99686,0.99686 0.003,0.003 0.99686,0.99686 0.003,0.003 0.99686,0.99686 0.003,0.003 0.99686,0.99686 0.003,0.003 0.99686,0.99686 0.003,0.003 0.99686,0.99686 0.003,0.003 0.99686,0.99686 0.003,0.003 0.99686,0.99686 0.003,0.003 0.99686,0.99686 0.003,0.003 0.99686,0.99686 0.003,0.003 0.99686,0.99686 v 1 l 0.003,0.003 0.99686,0.99686 0.003,0.003 0.99686,0.99686 0.003,0.003 0.99686,0.99686 0.003,0.003 0.99686,0.99686 0.003,0.003 0.99686,0.99686 0.003,0.003 0.99686,0.99686 0.003,0.003 0.99686,0.99686 0.003,0.003 0.99686,0.99686 0.003,0.003 0.99686,0.99686 0.003,0.003 0.99686,0.99686 0.003,0.003 0.99686,0.99686 0.003,0.003 0.99686,0.99686 0.003,0.003 0.99686,0.99686 0.003,0.003 0.99686,0.99686 0.003,0.003 0.99686,0.99686 0.003,0.003 0.99686,0.99686 0.003,0.003 0.99686,0.99686 0.003,0.003 0.99686,0.99686 0.003,0.003 0.99686,0.99686 0.003,0.003 0.99686,0.99686 0.003,0.003 0.99686,0.99686 0.003,0.003 0.99686,0.99686 0.003,0.003 0.99686,0.99686 0.003,0.003 0.99686,0.99686 0.003,0.003 0.99686,0.99686 0.003,0.003 0.99686,0.99686 0.003,0.003 0.99686,0.99686 0.003,0.003 0.99686,0.99686 0.003,0.003 0.99686,0.99686 0.003,0.003 0.99686,0.99686 0.003,0.003 0.99686,0.99686 0.003,0.003 0.99686,0.99686 0.003,0.003 0.99686,0.99686 0.003,0.003 0.99686,0.99686 0.003,0.003 0.99686,0.99686 0.003,0.003 0.99686,0.99686 0.003,0.003 0.99686,0.99686 0.003,0.003 0.99686,0.99686 0.003,0.003 0.99686,0.99686 0.003,0.003 0.99686,0.99686 0.003,0.003 0.99686,0.99686 0.003,0.003 0.99686,0.99686 0.003,0.003 0.99686,0.99686 0.003,0.003 0.99686,0.99686 0.003,0.003 0.99686,0.99686 0.003,0.003 0.99686,0.99686 0.003,0.003 0.99686,0.99686 0.003,0.003 0.99686,0.99686 0.003,0.003 0.99686,0.99686 0.003,0.003 0.99686,0.99686 0.003,0.003 0.99686,0.99686 0.003,0.003 0.99686,0.99686 0.003,0.003 0.99686,0.99686 0.003,0.003 0.99686,0.99686 0.003,0.003 0.99686,0.99686 0.003,0.003 0.99686,0.99686 0.003,0.003 0.99686,0.99686 0.003,0.003 0.99686,0.99686 0.003,0.003 0.99686,0.99686 0.003,0.003 0.99686,0.99686 0.003,0.003 0.99686,0.99686 0.003,0.003 0.99686,0.99686 0.003,0.003 0.99686,0.99686 0.003,0.003 0.99686,0.99686 0.003,0.003 0.99686,0.99686 0.003,0.003 0.99686,0.99686 0.003,0.003 0.99686,0.99686 0.003,0.003 0.99686,0.99686 0.003,0.003 0.99686,0.99686 0.003,0.003 0.99686,0.99686 0.003,0.003 0.99686,0.99686 0.003,0.003 0.99686,0.99686 0.003,0.003 0.99686,0.99686 0.003,0.003 0.99686,0.99686 0.003,0.003 0.99686,0.99686 0.003,0.003 0.99686,0.99686 0.003,0.003 0.99686,0.99686 0.003,0.003 0.99686,0.99686 0.003,0.003 0.99686,0.99686 0.003,0.003 0.99686,0.99686 v 1 l 0.003,0.003 0.99686,0.99686 0.003,0.003 0.99686,0.99686 v 1 1 l 0.003,0.003 0.99686,0.99686 v 1 1 1 1 1 1 1 l -0.98524,1.00848 -0.003,0.003 v 1 1 l -0.99686,0.99686 -0.003,0.003 -0.99686,0.99686 -0.003,0.003 -0.99686,0.99686 -0.003,0.003 -0.99686,0.99686 -0.003,0.003 -0.99686,0.99686 -0.003,0.003 -0.99686,0.99686 -0.003,0.003 -0.99686,0.99686 -0.003,0.003 -0.99686,0.99686 -0.003,0.003 -0.99686,0.99686 -0.003,0.003 -0.99686,0.99686 -0.003,0.003 -0.99686,0.99686 -0.003,0.003 -0.99686,0.99686 -0.003,0.003 v 1 l -0.99686,0.99686 -0.003,0.003 -0.99686,0.99686 -0.003,0.003 -0.99686,0.99686 -0.003,0.003 -0.99686,0.99686 -0.003,0.003 -0.99686,0.99686 -0.003,0.003 -0.99686,0.99686 -0.003,0.003 -0.99686,0.99686 -0.003,0.003 -0.99686,0.99686 -0.003,0.003 -0.99686,0.99686 -0.003,0.003 -0.99686,0.99686 -0.003,0.003 -0.99686,0.99686 -0.003,0.003 -0.99686,0.99686 -0.003,0.003 -0.99686,0.99686 -0.003,0.003 -0.99686,0.99686 -0.003,0.003 -0.99686,0.99686 -0.003,0.003 -0.99686,0.99686 -0.003,0.003 -0.99686,0.99686 -0.003,0.003 -0.99686,0.99686 -0.003,0.003 -0.99686,0.99686 -0.003,0.003 -0.99686,0.99686 -0.003,0.003 -0.99686,0.99686 -0.003,0.003 -0.99686,0.99686 -0.003,0.003 -0.99686,0.99686 -0.003,0.003 -0.99686,0.99686 -0.003,0.003 -0.99686,0.99686 -0.003,0.003 -0.99686,0.99686 -0.003,0.003 -0.99686,0.99686 -0.003,0.003 -0.99686,0.99686 -0.003,0.003 -0.99686,0.99686 -0.003,0.003 -0.99686,0.99686 -0.003,0.003 -0.99686,0.99686 -0.003,0.003 -0.99686,0.99686 -0.003,0.003 -0.99686,0.99686 -0.003,0.003 -0.99686,0.99686 -0.003,0.003 -0.99686,0.99686 -0.003,0.003 -0.99686,0.99686 -0.003,0.003 -0.99686,0.99686 -0.003,0.003 -0.99686,0.99686 -0.003,0.003 -0.99686,0.99686 -0.003,0.003 -0.99686,0.99686 -0.003,0.003 -0.99686,0.99686 -0.003,0.003 -0.99686,0.99686 -0.003,0.003 -0.99686,0.99686 -0.003,0.003 -0.99686,0.99686 -0.003,0.003 -0.99686,0.99686 -0.003,0.003 -0.99686,0.99686 -0.003,0.003 -0.99686,0.99686 -0.003,0.003 -0.99686,0.99686 -0.003,0.003 -0.99686,0.99686 -0.003,0.003 -0.99686,0.99686 -0.003,0.003 -0.99686,0.99686 -0.003,0.003 -0.99686,0.99686 -0.003,0.003 -0.99686,0.99686 -0.003,0.003 -0.99686,0.99686 -0.003,0.003 -0.99686,0.99686 -0.003,0.003 -0.99686,0.99686 -0.003,0.003 -0.99686,0.99686 -0.003,0.003 -0.99686,0.99686 -0.003,0.003 -0.99686,0.99686 -0.003,0.003 -0.99686,0.99686 -0.003,0.003 -0.99686,0.99686 -0.003,0.003 -0.99686,0.99686 -0.003,0.003 -0.99686,0.99686 -0.003,0.003 -0.99686,0.99686 -0.003,0.003 -0.99686,0.99686 -0.003,0.003 -0.99686,0.99686 -0.003,0.003 -0.99686,0.99686 -0.003,0.003 -0.99686,0.99686 -0.003,0.003 -0.99686,0.99686 -0.003,0.003 -0.99686,0.99686 -0.003,0.003 -0.99686,0.99686 -0.003,0.003 -0.99686,0.99686 -0.003,0.003 -0.99686,0.99686 -0.003,0.003 -0.99686,0.99686 -0.003,0.003 -0.99686,0.99686 -0.003,0.003 -0.99686,0.99686 -0.003,0.003 -0.99686,0.99686 -0.003,0.003 -0.99686,0.99686 -0.003,0.003 -0.99686,0.99686 -0.003,0.003 -0.99686,0.99686 -0.003,0.003 -0.99686,0.99686 -0.003,0.003 -0.99686,0.99686 -0.003,0.003 -0.99686,0.99686 -0.003,0.003 -0.99686,0.99686 -0.003,0.003 -0.99686,0.99686 -0.003,0.003 -0.99686,0.99686 -0.003,0.003 -0.99686,0.99686 -0.003,0.003 -0.99686,0.99686 -0.003,0.003 -0.99686,0.99686 -0.003,0.003 -0.99686,0.99686 -0.003,0.003 -0.99686,0.99686 -0.003,0.003 -0.99686,0.99686 h -1 -1 l -0.003,0.003 z"
       fill="#000000"
       stroke="none"
       id="path6"
       style="opacity:1;fill:url(#linearGradient97);filter:url(#filter96)" />
    <g
       id="g94"
       transform="translate(-218.8551,-206.84727)">
      <path
         id="path1"
         d="m 448.57617,220.00391 c 54.15461,30.25534 159.14193,91.27043 178.72656,104.32421 1.79844,1.19872 3.4576,4.07728 3.59375,6.23438 0.34372,5.44533 0.59809,17.33162 0.80664,31.43359 H 632 h 1 1 1 1 1 1 1 1 1 1 1 1 1 1 1 1 1 1 1 1 1 1 1 1 1 1 1 1 1 1 1 1 1 1 1 1 1 1 1 1 1 1 1 1 1 1 1 1 1 1 1 1 1 1 1 1 1 1 1 1 1 1 1 1 1 1 1 1 1 1 1 1 1 1 1 1 1 1 1 1 1 1 1 1 1 1 1 1 1 1 1 1 1 1 1 1 1 1 1 1 1 1 1 1 1 1 1 1 1 1 1 1 1 1 1 1 1 1 1 1 1 1 1 1 1 1 1 1 1 1 1 1 1 1 1 1 1 1 1 1 1 1 1 1 1 1 1 1 1 1 1 1 1 1 1 1 1 1 1 1 1 1 1 1 1 1 1 1 1 1 1 1 1 1 1 1 1 1 1 1 1 1 1 1 1 1 1 1 1 1 1 1 1 1 1 1 1 1 1 1 1 1 1 1 1 1 1 1 1 1 L 842.99609,361 843,360.99609 h 1 1 L 845.99609,360 846,359.99609 h 1 L 847.99609,359 848,358.99609 h 1 L 849.99609,358 850,357.99609 850.99609,357 851,356.99609 h 1 L 852.99609,356 853,355.99609 853.99609,355 854,354.99609 854.99609,354 855,353.99609 855.99609,353 856,352.99609 856.99609,352 857,351.99609 857.99609,351 v -1 L 858,349.99609 858.99609,349 859,348.99609 859.99609,348 v -1 L 860,346.99609 860.99609,346 v -1 -1 L 861,343.99609 861.99609,343 v -1 -1 -1 l 0.004,-0.004 0.99609,-0.99804 v -1 -1 -1 -1 -1 -1 -1 -1 -1 -1 -1 -1 -1 -1 -1 -1 -1 -1 -1 -1 -1 -1 -1 -1 -1 -1 -1 -1 -1 -1 -1 -1 -1 -1 -1 -1 -1 -1 -1 -1 -1 -1 -1 -1 -1 -1 -1 -1 -1 -1 -1 -1 -1 -1 -1 -1 -1 -1 -1 -1 -1 -1 -1 -1 -1 -1 -1 -1 -1 -1 -1 -1 -1 -1 -1 -1 -1 -1 -1 -1 -1 -1 -1 -1 -1 -1 -1 -1 -1 -1 -1 -1 -1 -1 -1 -1 l -0.99804,-0.9961 -0.002,-0.002 v -1 -1 -1 L 861,238.00195 860.99609,238 v -1 L 860,236.00195 859.99609,236 v -1 L 859,234.00195 858.99609,234 v -1 L 858,232.00195 857.99609,232 857,231.00195 856.99609,231 856,230.00391 855.99609,230 v -1 L 855,228.00391 l -0.004,-0.004 -0.99804,-0.99805 h -1 L 852.99609,227 852,226.00195 851.99609,226 851,225.00195 850.99609,225 850,224.00195 h -1 L 848.99609,224 848,223.00195 h -1 L 846.99609,223 846,222.00195 h -1 L 844.99609,222 844,221.00391 h -1 -1 -1 L 840.99609,221 840,220.00391 h -1 -1 -1 -1 -1 -1 -1 -1 -1 -1 -1 -1 -1 -1 -1 -1 -1 -1 -1 -1 -1 -1 -1 -1 -1 -1 -1 -1 -1 -1 -1 -1 -1 -1 -1 -1 -1 -1 -1 -1 -1 -1 -1 -1 -1 -1 -1 -1 -1 -1 -1 -1 -1 -1 -1 -1 -1 -1 -1 -1 -1 -1 -1 -1 -1 -1 -1 -1 -1 -1 -1 -1 -1 -1 -1 -1 -1 -1 -1 -1 -1 -1 -1 -1 -1 -1 -1 -1 -1 -1 -1 -1 -1 -1 -1 -1 -1 -1 -1 -1 -1 -1 -1 -1 -1 -1 -1 -1 -1 -1 -1 -1 -1 -1 -1 -1 -1 -1 -1 -1 -1 -1 -1 -1 -1 -1 -1 -1 -1 -1 -1 -1 -1 -1 -1 -1 -1 -1 -1 -1 -1 -1 -1 -1 -1 -1 -1 -1 -1 -1 -1 -1 -1 -1 -1 -1 -1 -1 -1 -1 -1 -1 -1 -1 -1 -1 -1 -1 -1 -1 -1 -1 -1 -1 -1 -1 -1 -1 -1 -1 -1 -1 -1 -1 -1 -1 -1 -1 -1 -1 -1 -1 -1 -1 -1 -1 -1 -1 -1 -1 -1 -1 -1 -1 -1 -1 -1 -1 -1 -1 -1 -1 -1 -1 -1 -1 -1 -1 -1 -1 -1 -1 -1 -1 -1 -1 -1 -1 -1 -1 -1 -1 -1 -1 -1 -1 -1 -1 -1 -1 -1 -1 -1 -1 -1 -1 -1 -1 -1 -1 -1 -1 -1 -1 -1 -1 -1 -1 -1 -1 -1 -1 -1 -1 -1 -1 -1 -1 -1 -1 -1 -1 -1 -1 -1 -1 -1 -1 -1 -1 -1 -1 -1 -1 -1 -1 -1 -1 -1 -1 -1 -1 -1 -1 -1 -1 -1 -1 -1 -1 -1 -1 -1 -1 -1 -1 -1 -1 -1 -1 -1 -1 -1 -1 -1 -1 -1 -1 -1 -1 -1 -1 -1 -1 -1 -1 -1 -1 -1 -1 -1 -1 -1 -1 -1 -1 -1 -1 -1 -1 -1 -1 -1 -1 -1 -1 -1 -1 -1 -1 -1 -1 -1 -1 -1 -1 -1 -1 -1 -1 -1 -1 -1 -1 -1 -1 -1 -1 -1 -1 -1 -1 -1 -1 -1 -1 -1 -1 -1 -1 -1 -1 -1 -1 -1 -1 -1 -1 -1 -1 -1 z"
         style="filter:url(#filter94)" />
      <path
         id="path5"
         d="m 631.96094,388.00391 c 0.31676,40.19176 0.28767,90.72728 -0.10547,129.99218 H 632 h 1 1 1 1 1 1 1 1 1 1 1 1 1 1 1 1 1 L 649.99609,517 v -1 -1 -1 -1 -1 -1 -1 -1 -1 -1 -1 -1 -1 -1 -1 -1 -1 -1 -1 -1 -1 -1 -1 -1 -1 -1 -1 -1 -1 -1 -1 -1 -1 -1 -1 -1 -1 -1 -1 -1 -1 -1 -1 -1 -1 -1 -1 -1 -1 -1 -1 -1 -1 L 650,463.99609 650.99609,463 v -1 -1 L 651,460.99609 651.99609,460 v -1 L 652,458.99609 652.99609,458 v -1 L 653,456.99609 653.99609,456 v -1 L 654,454.99609 654.99609,454 655,453.99609 655.99609,453 656,452.99609 656.99609,452 v -1 L 657,450.99609 657.99609,450 658,449.99609 658.99609,449 659,448.99609 h 1 L 660.99609,448 661,447.99609 661.99609,447 662,446.99609 662.99609,446 663,445.99609 h 1 L 664.99609,445 665,444.99609 665.99609,444 666,443.99609 h 1 L 667.99609,443 668,442.99609 h 1 1 L 670.99609,442 671,441.99609 h 1 1 1 L 674.99609,441 675,440.99609 h 1 1 1 1 1 1 1 1 1 1 1 1 1 1 1 1 1 1 1 1 1 1 1 1 1 1 1 1 1 1 1 1 1 1 1 1 1 1 1 1 1 1 1 1 1 1 1 1 1 1 1 1 1 1 1 1 1 1 1 1 1 1 1 1 1 1 1 1 1 1 1 1 1 1 1 1 1 1 1 1 1 1 1 1 1 1 1 1 1 1 1 1 1 1 1 1 1 1 1 1 1 1 1 1 1 1 1 1 1 1 1 1 L 787.99609,440 v -1 -1 -1 -1 -1 -1 -1 -1 -1 -1 -1 -1 -1 -1 -1 -1 -1 -1 -1 -1 -1 -1 -1 -1 -1 -1 -1 -1 -1 -1 -1 -1 -1 -1 -1 -1 -1 -1 -1 L 788,400.99609 788.99609,400 v -1 -1 -1 -1 -1 L 789,394.99609 789.99609,394 v -1 -1 -1 -1 L 790,389.99609 790.99609,389 790,388.00391 h -1 -1 -1 -1 -1 -1 -1 -1 -1 -1 -1 -1 -1 -1 -1 -1 -1 -1 -1 -1 -1 -1 -1 -1 -1 -1 -1 -1 -1 -1 -1 -1 -1 -1 -1 -1 -1 -1 -1 -1 -1 -1 -1 -1 -1 -1 -1 -1 -1 -1 -1 -1 -1 -1 -1 -1 -1 -1 -1 -1 -1 -1 -1 -1 -1 -1 -1 -1 -1 -1 -1 -1 -1 -1 -1 -1 -1 -1 -1 -1 -1 -1 -1 -1 -1 -1 -1 -1 -1 -1 -1 -1 -1 -1 -1 -1 -1 -1 -1 -1 -1 -1 -1 -1 -1 -1 -1 -1 -1 -1 -1 -1 -1 -1 -1 -1 -1 -1 -1 -1 -1 -1 -1 -1 -1 -1 -1 -1 -1 -1 -1 -1 -1 -1 -1 -1 -1 -1 -1 -1 -1 -1 -1 -1 -1 -1 -1 -1 -1 -1 -1 -1 -1 -1 -1 -1 -1 -1 z"
         style="filter:url(#filter94)" />
      <path
         id="path8"
         d="m 631.5293,543.00391 c -0.21659,12.30521 -0.46548,22.74502 -0.78516,27.70898 -0.1389,2.15685 -1.80154,5.03205 -3.60156,6.22852 -18.20855,12.1031 -110.91733,65.95135 -167.45117,97.74609 L 460,674.99609 460.00391,675 461,675.99609 h 1 l 0.004,0.004 0.99609,0.99609 0.004,0.004 0.99609,0.99609 h 1 l 0.004,0.004 0.99609,0.99609 h 1 1 l 0.004,0.004 0.99609,0.99609 h 1 1 l 0.004,0.004 0.99609,0.99609 h 1 1 1 1 1 1 1 1 1 1 1 1 1 1 1 1 1 1 1 1 1 1 1 1 1 1 1 1 1 1 1 1 1 1 1 1 1 1 1 1 1 1 1 1 1 1 1 1 1 1 1 1 1 1 1 1 1 1 1 1 1 1 1 1 1 1 1 1 1 1 1 1 1 1 1 1 1 1 1 1 1 1 1 1 1 1 1 1 1 1 1 1 1 1 1 1 1 1 1 1 1 1 1 1 1 1 1 1 1 1 1 1 1 1 1 1 1 1 1 1 1 1 1 1 1 1 1 1 1 1 1 1 1 1 1 1 1 1 1 1 1 1 1 1 1 1 1 1 1 1 1 1 1 1 1 1 1 1 1 1 1 1 1 1 1 1 1 1 1 1 1 1 1 1 1 1 1 1 1 1 1 1 1 1 1 1 1 1 1 1 1 1 1 1 1 1 1 1 1 1 1 1 1 1 1 1 1 1 1 1 1 1 1 1 1 1 1 1 1 1 1 1 1 1 1 1 1 1 1 1 1 1 1 1 1 1 1 1 1 1 1 1 1 1 1 1 1 1 1 1 1 1 1 1 1 1 1 1 1 1 1 1 1 1 1 1 1 1 1 1 1 1 1 1 1 1 1 1 1 1 1 1 1 1 1 1 1 1 1 1 1 1 1 1 1 1 1 1 1 1 1 1 1 1 1 1 1 1 1 1 1 1 1 1 1 1 1 1 1 1 1 1 1 1 1 1 1 1 1 1 1 1 1 1 1 1 1 1 1 1 1 1 1 1 1 1 1 1 1 1 1 1 1 1 1 1 1 1 1 1 1 1 1 1 1 1 1 1 1 L 841.99609,680 842,679.99609 h 1 1 1 L 845.99609,679 846,678.99609 h 1 L 847.99609,678 848,677.99609 h 1 L 849.99609,677 850,676.99609 h 1 L 851.99609,676 852,675.99609 852.99609,675 853,674.99609 853.99609,674 854,673.99609 854.99609,673 855,672.99609 855.99609,672 856,671.99609 856.99609,671 857,670.99609 857.99609,670 858,669.99609 858.99609,669 859,668.99609 859.99609,668 v -1 L 860,666.99609 860.99609,666 v -1 -1 L 861,663.99609 861.99609,663 v -1 -1 L 862,660.99609 862.99609,660 v -1 -1 -1 -1 -1 -1 -1 -1 -1 -1 -1 -1 -1 -1 -1 -1 -1 -1 -1 -1 -1 -1 -1 -1 -1 -1 -1 -1 -1 -1 -1 -1 -1 -1 -1 -1 -1 -1 L 862,621.00391 861.00391,622 861,622.00391 860.00391,623 860,623.00391 859.00391,624 v 1 L 859,625.00391 858.00391,626 858,626.00391 857.00391,627 857,627.00391 856.00391,628 856,628.00391 855.00391,629 855,629.00391 854.00391,630 854,630.00391 h -1 L 852.00391,631 852,631.00391 851.00391,632 851,632.00391 850.00391,633 850,633.00391 h -1 L 848.00391,634 848,634.00391 847.00391,635 847,635.00391 h -1 L 845.00391,636 845,636.00391 h -1 L 843.00391,637 843,637.00391 h -1 -1 L 840.00391,638 840,638.00391 h -1 -1 L 837.00391,639 837,639.00391 h -1 -1 -1 -1 -1 L 831.00391,640 h -0.008 -1 -1 -1 -1 -1 -1 l -0.002,-0.004 -0.99782,-0.996 h -1 -1 -1 -1 -1 l -0.002,-0.004 -0.998,-0.996 h -1 -1 l -0.002,-0.004 -0.998,-0.996 h -1 l -0.002,-0.004 -0.998,-0.996 h -1 l -0.002,-0.004 -0.998,-0.996 h -1 l -0.002,-0.002 -0.99604,-0.998 h -1 l -0.004,-0.002 -0.99609,-0.99805 -0.004,-0.002 L 805.99805,632 h -1 l -0.004,-0.002 -0.99609,-0.99805 -0.004,-0.002 -0.99609,-0.99805 -0.004,-0.002 -0.99609,-0.9961 -0.004,-0.004 -0.99609,-0.9961 -0.004,-0.004 -0.99609,-0.9961 -0.002,-0.004 -0.99804,-0.9961 -0.002,-0.004 -0.99804,-0.9961 -0.002,-0.004 -0.99804,-0.9961 -0.002,-0.004 v -1 l -0.99804,-0.9961 -0.002,-0.004 -0.99804,-0.9961 -0.002,-0.004 v -1 l -0.99804,-0.9961 -0.002,-0.002 v -1 L 793,617.00195 792.99609,617 v -1 L 792,615.00195 791.99609,615 v -1 L 791,613.00195 790.99609,613 v -1 -1 L 790,610.00195 789.99609,610 v -1 -1 -1 L 789,606.00195 788.99609,606 v -1 -1 -1 -1 L 788,601.00391 787.99609,601 v -1 -1 -1 -1 -1 -1 -1 -1 -1 -1 -1 -1 -1 -1 -1 -1 -1 -1 -1 -1 -1 -1 -1 -1 -1 -1 -1 -1 -1 -1 -1 -1 -1 -1 -1 -1 l -0.99804,-1 h -1 -1 -1 -1 -1 -1 -1 -1 -1 -1 -1 -1 -1 -1 -1 -1 -1 -1 -1 -1 -1 -1 -1 -1 -1 -1 -1 -1 -1 -1 -1 -1 -1 -1 -1 -1 -1 -1 -1 -1 -1 -1 -1 -1 -1 -1 -1 -1 -1 -1 -1 -1 -1 -1 -1 -1 -1 -1 -1 -1 -1 -1 -1 -1 -1 -1 -1 -1 -1 -1 -1 -1 -1 -1 -1 -1 -1 -1 -1 -1 -1 -1 -1 -1 -1 -1 -1 -1 -1 -1 -1 -1 -1 -1 -1 -1 -1 -1 -1 -1 -1 -1 -1 -1 -1 -1 -1 l -0.004,-0.002 -0.996,-0.998 h -1 -1 -1 -1 -1 l -0.004,-0.002 -0.99609,-0.9961 h -1 -1 l -0.004,-0.004 -0.99609,-0.9961 h -1 l -0.004,-0.004 -0.99609,-0.9961 h -1 l -0.002,-0.004 -0.99804,-0.9961 h -1 l -0.002,-0.004 -0.99804,-0.9961 h -1 l -0.002,-0.004 -0.99804,-0.9961 -0.002,-0.004 -0.99804,-0.9961 -0.002,-0.004 -0.99804,-0.9961 -0.002,-0.004 -0.99804,-0.9961 L 658.99609,554 658,553.00195 657.99609,553 657,552.00195 656.99609,552 656,551.00195 655.99609,551 v -1 L 655,549.00195 654.99609,549 654,548.00195 653.99609,548 v -1 L 653,546.00391 652.99609,546 v -1 L 652,544.00391 651.99609,544 651,543.00391 h -1 -1 -1 -1 -1 -1 -1 -1 -1 -1 -1 -1 -1 -1 -1 -1 -1 -1 -1 z"
         style="filter:url(#filter94)" />
    </g>
    <path
       id="path12"
       style="mix-blend-mode:normal;fill:#43a047;fill-opacity:1;stroke:none;stroke-width:35.6544;stroke-linecap:butt;stroke-linejoin:miter;stroke-dasharray:none;stroke-opacity:1;filter:url(#filter90)"
       d="m 196.93592,19.116836 c -1.19457,-7.7e-4 -2.38932,0.21507 -3.26953,0.6504 C 169.86488,31.538566 26.72775,114.05836 4.6136501,128.75747 c -1.63566,1.08721 -3.14722,3.70026 -3.27344,5.66016 -1.70647995,26.49837 -1.81140995,191.71977 -0.13867,218.2207 0.12372,1.96012 1.63142,4.57481 3.26563,5.66406 22.0950199,14.72705 165.1291599,97.42864 188.9160099,109.23047 1.75937,0.87297 4.77668,0.87454 6.53711,0.004 23.8015,-11.77133 166.94058,-94.28917 189.05469,-108.98827 1.63565,-1.08721 3.14527,-3.70027 3.27148,-5.66016 1.70648,-26.49837 1.81142,-191.71978 0.13867,-218.22071 -0.12372,-1.96011 -1.63141,-4.5748 -3.26562,-5.66406 C 367.02449,114.27662 223.9923,31.575006 200.20544,19.773186 c -0.87968,-0.43649 -2.07496,-0.65547 -3.26952,-0.65625 z m -0.0234,37.08204 c 0.99729,6.4e-4 1.99606,0.18247 2.73047,0.54687 19.85848,9.85277 139.26878,78.896524 157.71484,91.191414 1.36432,0.90936 2.62327,3.0921 2.72656,4.72851 1.3965,22.12434 1.30747,160.05944 -0.11718,182.18164 -0.10538,1.63622 -1.36495,3.81695 -2.73047,4.72461 -18.46199,12.27157 -137.96132,81.16292 -157.83203,90.99024 -1.4697,0.72685 -3.99017,0.72685 -5.45899,-0.002 -19.85848,-9.85277 -139.26878,-78.89651 -157.71484,-91.1914 -1.36432,-0.90937 -2.62328,-3.09211 -2.72657,-4.72852 -1.39649,-22.12434 -1.30942,-160.05944 0.11524,-182.18164 0.10537,-1.63622 1.36689,-3.81891 2.73242,-4.72656 18.46199,-12.27157 137.96132,-81.162924 157.83204,-90.990244 0.73484,-0.36342 1.73122,-0.54361 2.72851,-0.54296 z" />
    <path
       d="m 279.1449,334.64886 h -1 -1 -1 -1 -1 -1 -1 -1 -1 -1 -1 -1 -1 -1 -1 -1 -1 -1 -1 -1 -1 -1 -1 -1 -1 -1 -1 -1 -1 -1 -1 -1 -1 l -0.99686,-0.99686 -0.003,-0.003 h -1 -1 l -0.99686,-0.99686 -0.003,-0.003 h -1 l -0.99686,-0.99686 -0.003,-0.003 -0.99686,-0.99686 -0.003,-0.003 h -1 l -0.99686,-0.99686 -0.003,-0.003 -0.99686,-0.99686 v -1 l -0.003,-0.003 -0.99686,-0.99686 -0.003,-0.003 -0.99686,-0.99686 -0.003,-0.003 -0.99686,-0.99686 -0.003,-0.003 -0.99686,-0.99686 v -1 l -0.003,-0.003 -0.99686,-0.99686 -0.003,-0.003 -0.99686,-0.99686 -0.003,-0.003 -0.99686,-0.99686 -0.003,-0.003 -0.99686,-0.99686 -0.003,-0.003 -0.99686,-0.99686 v -1 l -0.003,-0.003 -0.99686,-0.99686 -0.003,-0.003 -0.99686,-0.99686 -0.003,-0.003 -0.99686,-0.99686 -0.003,-0.003 -0.99686,-0.99686 -0.003,-0.003 -0.99686,-0.99686 v -1 l -0.003,-0.003 -0.99686,-0.99686 -0.003,-0.003 -0.99686,-0.99686 -0.003,-0.003 -0.99686,-0.99686 -0.003,-0.003 -0.99686,-0.99686 -0.003,-0.003 -0.99686,-0.99686 v -1 l -0.003,-0.003 -0.99686,-0.99686 -0.003,-0.003 -0.99686,-0.99686 -0.003,-0.003 -0.99686,-0.99686 -0.003,-0.003 -0.99686,-0.99686 -0.003,-0.003 -0.99686,-0.99686 v -1 l -0.003,-0.003 -0.99686,-0.99686 -0.003,-0.003 -0.99686,-0.99686 -0.003,-0.003 -0.99686,-0.99686 -0.003,-0.003 -0.99686,-0.99686 v -1 l -0.003,-0.003 -0.99686,-0.99686 -0.003,-0.003 -0.99686,-0.99686 -0.003,-0.003 -0.99686,-0.99686 -0.003,-0.003 -0.99686,-0.99686 -0.003,-0.003 -0.99686,-0.99686 v -1 l -0.003,-0.003 -0.99686,-0.99686 -0.003,-0.003 -0.99686,-0.99686 -0.003,-0.003 -0.99686,-0.99686 -0.003,-0.003 -0.99686,-0.99686 -0.003,-0.003 -0.99686,-0.99686 v -1 l -0.003,-0.003 -0.99686,-0.99686 -0.003,-0.003 -0.99686,-0.99686 -0.003,-0.003 -0.99686,-0.99686 -0.003,-0.003 -0.99686,-0.99686 -0.003,-0.003 -0.99686,-0.99686 v -1 l -0.003,-0.003 -0.99686,-0.99686 -0.003,-0.003 -0.99686,-0.99686 -0.003,-0.003 -0.99686,-0.99686 -0.003,-0.003 -0.99686,-0.99686 v -1 l -0.003,-0.003 -0.99686,-0.99686 -0.003,-0.003 -0.99686,-0.99686 -0.003,-0.003 -0.99686,-0.99686 -0.003,-0.003 -0.99686,-0.99686 -0.003,-0.003 -0.99686,-0.99686 v -1 l -0.003,-0.003 -0.99686,-0.99686 -0.003,-0.003 -0.99686,-0.99686 -0.003,-0.003 -0.99686,-0.99686 -0.003,-0.003 -0.99686,-0.99686 -0.003,-0.003 -0.99686,-0.99686 v -1 l -0.003,-0.003 -0.99686,-0.99686 -0.003,-0.003 -0.99686,-0.99686 -0.003,-0.003 -0.99686,-0.99686 -0.003,-0.003 -0.99686,-0.99686 -0.003,-0.003 -0.99686,-0.99686 v -1 l -0.003,-0.003 -0.99686,-0.99686 -0.003,-0.003 -0.99686,-0.99686 -0.003,-0.003 -0.99686,-0.99686 -0.003,-0.003 -0.99686,-0.99686 -0.003,-0.003 -0.99686,-0.99686 v -1 l -0.003,-0.003 -0.99686,-0.99686 -0.003,-0.003 -0.99686,-0.99686 -0.003,-0.003 -0.99686,-0.99686 -0.003,-0.003 -0.99686,-0.99686 -0.003,-0.003 -0.99686,-0.99686 v -1 l -0.003,-0.003 -0.99686,-0.99686 -0.003,-0.003 -0.99686,-0.99686 -0.003,-0.003 -0.99686,-0.99686 -0.003,-0.003 -0.99686,-0.99686 v -1 l -0.003,-0.003 -0.99686,-0.99686 -0.003,-0.003 -0.99686,-0.99686 -0.003,-0.003 -0.99686,-0.99686 -0.003,-0.003 -0.99686,-0.99686 -0.003,-0.003 -0.99686,-0.99686 v -1 l -0.003,-0.003 -0.99686,-0.99686 -0.003,-0.003 -0.99686,-0.99686 -0.003,-0.003 -0.99686,-0.99686 -0.003,-0.003 -0.99686,-0.99686 v -1 l -0.003,-0.003 -0.99686,-0.99686 -0.003,-0.003 -0.99686,-0.99686 -0.003,-0.003 -0.99686,-0.99686 -0.003,-0.003 -0.99686,-0.99686 -0.003,-0.003 -0.99686,-0.99686 -0.003,-0.003 -0.99686,-0.99686 v -1 l -0.003,-0.003 -0.99686,-0.99686 -0.003,-0.003 -0.99686,-0.99686 -0.003,-0.003 -0.003,0.003 v 1 1 1 1 1 1 1 1 1 1 1 1 1 1 1 1 1 1 1 1 1 1 1 1 1 1 1 1 1 1 1 1 1 1 1 1 1 1 1 1 1 1 1 1 1 1 1 1 1 1 1 1 1 1 1 1 1 1 1 1 1 1 1 1 1 1 1 1 1 1 1 1 1 1 1 1 1 1 1 1 1 1 1 1 1 1 1 1 1 1 1 1 1 1 1 1 1 1 1 1 1 1 1 1 1 1 1 1 1 1 1 1 l -1.01086,0.98314 -0.003,0.003 v 1 l -0.997,0.997 -0.003,0.003 -0.99686,0.99686 -0.003,0.003 -0.99686,0.99686 -0.003,0.003 -0.99728,0.99728 h -1 l -0.003,0.003 -0.997,0.997 h -1 -1 -1 -1 -1 -1 -1 -1 -1 -1 -1 -1 -1 -1 -1 -1 -1 -1 -1 -1 -1 -1 -1 -1 -1 -1 -1 -1 -1 -1 l -0.99686,-0.99686 -0.003,-0.003 h -1 l -0.99686,-0.99686 -0.003,-0.003 h -1 l -0.99686,-0.99686 -0.003,-0.003 -0.99686,-0.99686 v -1 l -0.003,-0.003 -0.99686,-0.99686 v -1 -1 -1 -1 -1 -1 -1 -1 -1 -1 -1 -1 -1 -1 -1 -1 -1 -1 -1 -1 -1 -1 -1 -1 -1 -1 -1 -1 -1 -1 -1 -1 -1 -1 -1 -1 -1 -1 -1 -1 -1 -1 -1 -1 -1 -1 -1 -1 -1 -1 -1 -1 -1 -1 -1 -1 -1 -1 -1 -1 -1 -1 -1 -1 -1 -1 -1 -1 -1 -1 -1 -1 -1 -1 -1 -1 -1 -1 -1 -1 -1 -1 -1 -1 -1 -1 -1 -1 -1 -1 -1 -1 -1 -1 -1 -1 -1 -1 -1 -1 -1 -1 -1 -1 -1 -1 -1 -1 -1 -1 -1 -1 -1 -1 -1 -1 -1 -1 -1 -1 -1 -1 -1 -1 -1 -1 -1 -1 -1 -1 -1 -1 -1 -1 -1 -1 -1 -1 -1 -1 -1 -1 -1 -1 -1 -1 -1 -1 -1 -1 -1 -1 -1 -1 -1 -1 -1 -1 -1 -1 -1 -1 -1 -1 -1 -1 -1 -1 l 0.9963,-0.99742 0.003,-0.003 v -1 l 0.997,-0.997 0.003,-0.003 0.99686,-0.99686 0.003,-0.003 0.99686,-0.99686 0.003,-0.003 0.99728,-0.99728 h 1 l 0.003,-0.003 0.997,-0.997 h 1 1 1 1 1 1 1 1 1 1 1 1 1 1 1 1 1 1 1 1 1 1 1 1 1 1 1 1 1 1 1 1 1 1 1 1 1 1 l 0.99686,0.99686 0.003,0.003 h 1 l 0.997,0.997 0.003,0.003 0.99686,0.99686 0.003,0.003 0.99686,0.99686 0.003,0.003 0.99686,0.99686 v 1 l 0.003,0.003 0.99686,0.99686 0.003,0.003 0.99686,0.99686 0.003,0.003 0.99686,0.99686 0.003,0.003 0.99686,0.99686 0.003,0.003 0.99686,0.99686 v 1 l 0.003,0.003 0.99686,0.99686 0.003,0.003 0.99686,0.99686 0.003,0.003 0.99686,0.99686 0.003,0.003 0.99686,0.99686 v 1 l 0.003,0.003 0.99686,0.99686 0.003,0.003 0.99686,0.99686 0.003,0.003 0.99686,0.99686 0.003,0.003 0.99686,0.99686 0.003,0.003 0.99686,0.99686 v 1 l 0.003,0.003 0.99686,0.99686 0.003,0.003 0.99686,0.99686 0.003,0.003 0.99686,0.99686 0.003,0.003 0.99686,0.99686 0.003,0.003 0.99686,0.99686 v 1 l 0.003,0.003 0.99686,0.99686 0.003,0.003 0.99686,0.99686 0.003,0.003 0.99686,0.99686 0.003,0.003 0.99686,0.99686 v 1 l 0.003,0.003 0.99686,0.99686 0.003,0.003 0.99686,0.99686 0.003,0.003 0.99686,0.99686 0.003,0.003 0.99686,0.99686 0.003,0.003 0.99686,0.99686 v 1 l 0.003,0.003 0.99686,0.99686 0.003,0.003 0.99686,0.99686 0.003,0.003 0.99686,0.99686 0.003,0.003 0.99686,0.99686 0.003,0.003 0.99686,0.99686 v 1 l 0.003,0.003 0.99686,0.99686 0.003,0.003 0.99686,0.99686 0.003,0.003 0.99686,0.99686 0.003,0.003 0.99686,0.99686 0.003,0.003 0.99686,0.99686 v 1 l 0.003,0.003 0.99686,0.99686 0.003,0.003 0.99686,0.99686 0.003,0.003 0.99686,0.99686 0.003,0.003 0.99686,0.99686 0.003,0.003 0.99686,0.99686 v 1 l 0.003,0.003 0.99686,0.99686 0.003,0.003 0.99686,0.99686 0.003,0.003 0.99686,0.99686 0.003,0.003 0.99686,0.99686 v 1 l 0.003,0.003 0.99686,0.99686 0.003,0.003 0.99686,0.99686 0.003,0.003 0.99686,0.99686 0.003,0.003 0.99686,0.99686 0.003,0.003 0.99686,0.99686 v 1 l 0.003,0.003 0.99686,0.99686 0.003,0.003 0.99686,0.99686 0.003,0.003 0.99686,0.99686 0.003,0.003 0.99686,0.99686 0.003,0.003 0.99686,0.99686 v 1 l 0.003,0.003 0.99686,0.99686 0.003,0.003 0.99686,0.99686 0.003,0.003 0.99686,0.99686 0.003,0.003 0.99686,0.99686 0.003,0.003 0.99686,0.99686 v 1 l 0.003,0.003 0.99686,0.99686 0.003,0.003 0.99686,0.99686 0.003,0.003 0.99686,0.99686 0.003,0.003 0.99686,0.99686 v 1 l 0.003,0.003 0.99686,0.99686 0.003,0.003 0.99686,0.99686 0.003,0.003 0.99686,0.99686 0.003,0.003 0.99686,0.99686 0.003,0.003 0.99686,0.99686 v 1 l 0.003,0.003 0.99686,0.99686 0.003,0.003 0.99686,0.99686 0.003,0.003 0.99686,0.99686 0.003,0.003 0.99686,0.99686 0.003,0.003 0.99686,0.99686 v 1 l 0.003,0.003 0.99686,0.99686 0.003,0.003 0.99686,0.99686 0.003,0.003 0.99686,0.99686 0.003,0.003 0.99686,0.99686 0.003,0.003 0.99686,0.99686 v 1 l 0.003,0.003 0.99686,0.99686 0.003,0.003 0.99686,0.99686 0.003,0.003 0.99686,0.99686 0.003,0.003 0.99686,0.99686 0.003,0.003 0.99686,0.99686 v 1 l 0.003,0.003 0.99686,0.99686 0.003,0.003 0.99686,0.99686 0.003,0.003 0.99686,0.99686 0.003,0.003 0.99686,0.99686 v 1 l 0.003,0.003 0.99686,0.99686 0.003,0.003 0.003,-0.003 v -1 -1 -1 -1 -1 -1 -1 -1 -1 -1 -1 -1 -1 -1 -1 -1 -1 -1 -1 -1 -1 -1 -1 -1 -1 -1 -1 -1 -1 -1 -1 -1 -1 -1 -1 -1 -1 -1 -1 -1 -1 -1 -1 -1 -1 -1 -1 -1 -1 -1 -1 -1 -1 -1 -1 -1 -1 -1 -1 -1 -1 -1 -1 -1 -1 -1 -1 -1 -1 -1 -1 -1 -1 -1 -1 -1 -1 -1 -1 -1 -1 -1 -1 -1 -1 -1 -1 -1 -1 -1 -1 -1 -1 -1 -1 -1 -1 -1 -1 -1 -1 -1 -1 -1 -1 -1 -1 -1 -1 l 1.0103,-0.9837 0.003,-0.003 v -1 l 0.997,-0.997 0.003,-0.003 v -1 l 0.997,-0.997 h 1 l 0.003,-0.003 0.997,-0.997 h 1 l 0.003,-0.003 0.997,-0.997 h 1 1 1 1 1 1 1 1 1 1 1 1 1 1 1 1 1 1 1 1 1 1 1 1 1 1 1 1 1 1 1 l 0.99686,0.99686 0.003,0.003 h 1 l 0.997,0.997 0.003,0.003 0.99686,0.99686 0.003,0.003 0.99686,0.99686 0.003,0.003 0.99686,0.99686 v 1 l 0.003,0.003 0.99686,0.99686 v 1 1 1 1 1 1 1 1 1 1 1 1 1 1 1 1 1 1 1 1 1 1 1 1 1 1 1 1 1 1 1 1 1 1 1 1 1 1 1 1 1 1 1 1 1 1 1 1 1 1 1 1 1 1 1 1 1 1 1 1 1 1 1 1 1 1 1 1 1 1 1 1 1 1 1 1 1 1 1 1 1 1 1 1 1 1 1 1 1 1 1 1 1 1 1 1 1 1 1 1 1 1 1 1 1 1 1 1 1 1 1 1 1 1 1 1 1 1 1 1 1 1 1 1 1 1 1 1 1 1 1 1 1 1 1 1 1 1 1 1 1 1 1 1 1 1 1 1 1 1 1 1 1 1 1 1 1 1 1 1 1 1 1 1 1 1 1 l -0.99672,0.997 -0.003,0.003 v 1 l -0.99658,0.99742 -0.003,0.003 -0.99686,0.99686 -0.003,0.003 -0.99686,0.99686 -0.003,0.003 -0.99728,0.99728 h -1 l -0.003,0.003 z"
       fill="black"
       stroke="none"
       id="path7"
       style="fill:#43a047;fill-opacity:1;filter:url(#filter92)" />
  </g>
</svg>
